# xmcd
#
# Track frame offsets: 
#        150
#        11696
#        25740
#        40355
#        53294
#        69520
#        82774
#        95088
#        108413
#        119226
#
# Disc length: 1828 seconds
#
# Revision: 0
# Processed by: cddbd v1.5.2PL0 Copyright (c) Steve Scherf et al.
# Submitted via: ExactAudioCopy v0.95b4
#
DISCID=7a07220a
DTITLE=Hope Street - Won't We Have A Time
DYEAR=2004
DGENRE=Christian
TTITLE0=What I Am
TTITLE1=He Is The Potter
TTITLE2=Closet Of Prayer
TTITLE3=I Don't Have To Understand
TTITLE4=The Next Time
TTITLE5=Won't We Have A Time
TTITLE6=One Drop Of Blood
TTITLE7=We Won't Be Going Down
TTITLE8=One More Soul
TTITLE9=The Offer Still Stands
EXTD=
EXTT0=
EXTT1=
EXTT2=
EXTT3=
EXTT4=
EXTT5=
EXTT6=
EXTT7=
EXTT8=
EXTT9=
PLAYORDER=
